<svg width="60" height="320" viewBox="0 0 60 320" fill="none" xmlns="http://www.w3.org/2000/svg">
<path d="M59.6 159.8C59.6 176.258 46.2581 189.6 29.8 189.6C13.3419 189.6 0 176.258 0 159.8C0 143.342 13.3419 130 29.8 130C46.2581 130 59.6 143.342 59.6 159.8ZM7.301 159.8C7.301 172.226 17.3741 182.299 29.8 182.299C42.2259 182.299 52.299 172.226 52.299 159.8C52.299 147.374 42.2259 137.301 29.8 137.301C17.3741 137.301 7.301 147.374 7.301 159.8Z" fill="#FAB72D"/>
<path d="M18.6958 103.837L30.3308 7.74932C30.4762 6.54855 32.2102 6.52697 32.3854 7.72375L48.818 119.953C48.8576 120.223 48.7889 120.498 48.6269 120.718L21.9304 156.944C21.345 157.738 20.0856 157.343 20.0598 156.356L18.6887 103.989C18.6873 103.938 18.6897 103.887 18.6958 103.837Z" fill="black" stroke="black" stroke-width="8.81062" stroke-linejoin="round"/>
<path d="M41.3208 215.261L29.6858 311.349C29.5404 312.549 27.8064 312.571 27.6312 311.374L11.1985 199.145C11.159 198.875 11.2277 198.6 11.3897 198.38L38.0861 162.154C38.6716 161.36 39.9309 161.755 39.9568 162.742L41.3279 215.109C41.3292 215.16 41.3268 215.211 41.3208 215.261Z" fill="black" stroke="black" stroke-width="8.81062" stroke-linejoin="round"/>
</svg>
