<svg width="49" height="49" viewBox="0 0 49 49" fill="none" xmlns="http://www.w3.org/2000/svg">
<mask id="mask0_4067_8" style="mask-type:alpha" maskUnits="userSpaceOnUse" x="0" y="0" width="49" height="49">
<circle cx="24.5" cy="24.5" r="24.5" fill="#D9D9D9"/>
</mask>
<g mask="url(#mask0_4067_8)">
<path d="M49 24.5C49 38.031 38.031 49 24.5 49C10.969 49 0 38.031 0 24.5C0 10.969 10.969 0 24.5 0C38.031 0 49 10.969 49 24.5ZM6.0025 24.5C6.0025 34.7159 14.2841 42.9975 24.5 42.9975C34.7159 42.9975 42.9975 34.7159 42.9975 24.5C42.9975 14.2841 34.7159 6.0025 24.5 6.0025C14.2841 6.0025 6.0025 14.2841 6.0025 24.5Z" fill="#FAB72D"/>
<path d="M-21.5035 34.0062L-100.682 24.7811C-101.672 24.6659 -101.696 23.2379 -100.711 23.0891L-8.34292 9.13833C-8.12049 9.10474 -7.89379 9.1603 -7.71209 9.29293L22.222 31.1448C22.8784 31.624 22.5572 32.6626 21.7448 32.6876L-21.3785 34.0115C-21.4203 34.0128 -21.462 34.011 -21.5035 34.0062Z" fill="black" stroke="black" stroke-width="7.25629" stroke-linejoin="round"/>
<path d="M70.1783 14.9592L149.357 24.1842C150.347 24.2995 150.371 25.7275 149.386 25.8762L57.0177 39.827C56.7953 39.8606 56.5686 39.805 56.3869 39.6724L26.4528 17.8205C25.7964 17.3413 26.1176 16.3027 26.93 16.2778L70.0533 14.9538C70.0951 14.9525 70.1368 14.9543 70.1783 14.9592Z" fill="black" stroke="black" stroke-width="7.25629" stroke-linejoin="round"/>
</g>
</svg>
