<svg width="1098" height="1098" viewBox="0 0 1098 1098" fill="none" xmlns="http://www.w3.org/2000/svg">
<mask id="mask0_225_114" style="mask-type:alpha" maskUnits="userSpaceOnUse" x="0" y="0" width="1098" height="1098">
<circle cx="549" cy="549" r="540" fill="#D9D9D9" stroke="black" stroke-width="18"/>
</mask>
<g mask="url(#mask0_225_114)">
<path d="M549 1089C847.234 1089 1089 847.234 1089 549C1089 250.766 847.234 9 549 9C250.766 9 9 250.766 9 549C9 847.234 250.766 1089 549 1089Z" fill="url(#paint0_radial_225_114)" stroke="black" stroke-width="36" stroke-miterlimit="10"/>
<path d="M730.094 782.662C714.254 822.622 677.894 850.702 643.334 859.702C619.934 865.822 613.814 859.342 527.774 857.182C491.774 856.462 473.774 855.742 462.614 857.902C419.054 866.182 407.534 885.982 362.534 900.022C343.814 905.782 325.094 909.022 288.014 910.102C-250.186 927.382 -421.906 895.702 -421.906 895.702C-1308.59 785.542 -1367.99 785.902 -1864.43 703.102C-1953.35 688.342 -2025.35 669.982 -2080.79 652.342C-2112.83 642.262 -2125.43 603.382 -2105.27 576.382C-2063.15 519.862 -2043.71 514.462 -2024.99 499.702C-2022.47 497.542 -1993.31 476.662 -1977.47 471.622C-1965.59 467.662 -1952.99 465.862 -1940.75 462.262C-1921.31 456.142 -1900.43 454.702 -1889.63 452.542C-1797.47 433.822 -1469.15 390.262 -1153.07 324.382C-852.466 262.102 -607.666 151.222 -357.826 153.022C26.6545 155.902 102.974 254.182 156.614 292.342C248.774 357.862 327.614 495.742 435.974 561.262C444.614 566.302 455.054 573.142 471.254 578.902C523.094 598.342 551.894 582.142 604.454 592.222C622.454 595.462 654.494 601.582 682.574 624.622C722.174 657.022 753.494 722.542 730.094 781.942V782.662Z" fill="#1D1D1B" stroke="white" stroke-width="18" stroke-miterlimit="10"/>
<path d="M599.034 806.78C639.793 806.78 672.835 773.738 672.835 732.98C672.835 692.221 639.793 659.18 599.034 659.18C558.276 659.18 525.234 692.221 525.234 732.98C525.234 773.738 558.276 806.78 599.034 806.78Z" fill="white" stroke="#1D1D1B" stroke-width="18" stroke-miterlimit="10"/>
<path d="M391.66 331.951C407.5 291.991 443.86 263.911 478.42 254.911C501.82 248.791 507.94 255.271 593.98 257.431C629.98 258.151 647.98 258.871 659.14 256.711C702.7 248.431 714.22 228.631 759.22 214.591C777.94 208.831 796.66 205.591 833.74 204.511C1371.94 187.231 1543.66 218.911 1543.66 218.911C2430.34 329.071 2489.74 328.711 2986.18 411.511C3075.1 426.271 3147.1 444.631 3202.54 462.271C3234.58 472.351 3247.18 511.231 3227.02 538.231C3184.9 594.751 3165.46 600.151 3146.74 614.911C3144.22 617.071 3115.06 637.951 3099.22 642.991C3087.34 646.951 3074.74 648.751 3062.5 652.351C3043.06 658.471 3022.18 659.911 3011.38 662.071C2919.22 680.791 2590.9 724.351 2274.82 790.231C1974.22 852.511 1729.42 963.391 1479.58 961.591C1095.1 958.711 1018.78 860.431 965.14 822.271C872.98 756.751 794.14 618.871 685.78 553.351C677.14 548.311 666.7 541.471 650.5 535.711C598.66 516.271 569.86 532.471 517.3 522.391C499.3 519.151 467.26 513.031 439.18 489.991C399.58 457.591 368.26 392.071 391.66 332.671V331.951Z" fill="#1D1D1B" stroke="white" stroke-width="18" stroke-miterlimit="10"/>
<path d="M522.745 455.428C563.504 455.428 596.545 422.387 596.545 381.628C596.545 340.87 563.504 307.828 522.745 307.828C481.987 307.828 448.945 340.87 448.945 381.628C448.945 422.387 481.987 455.428 522.745 455.428Z" fill="white" stroke="#1D1D1B" stroke-width="18" stroke-miterlimit="10"/>
<path d="M549 1089C847.234 1089 1089 847.234 1089 549C1089 250.766 847.234 9 549 9C250.766 9 9 250.766 9 549C9 847.234 250.766 1089 549 1089Z" stroke="black" stroke-width="36" stroke-miterlimit="10"/>
</g>
<defs>
<radialGradient id="paint0_radial_225_114" cx="0" cy="0" r="1" gradientUnits="userSpaceOnUse" gradientTransform="translate(549 549) scale(540 540)">
<stop stop-color="#FFCE01"/>
<stop offset="0.33" stop-color="#FECB03"/>
<stop offset="0.54" stop-color="#FCC30C"/>
<stop offset="0.72" stop-color="#FAB51A"/>
<stop offset="0.88" stop-color="#F6A22F"/>
<stop offset="1" stop-color="#F28D46"/>
</radialGradient>
</defs>
</svg>
