<svg width="32" height="151" viewBox="0 0 32 151" fill="none" xmlns="http://www.w3.org/2000/svg">
<g clip-path="url(#clip0_225_80)">
<path d="M31 75.5C31 67.2157 24.2843 60.5 16 60.5C7.71573 60.5 0.999999 67.2157 0.999999 75.5C1 83.7843 7.71573 90.5 16 90.5C24.2843 90.5 31 83.7843 31 75.5Z" fill="url(#paint0_radial_225_80)" stroke="black" stroke-miterlimit="10"/>
<path d="M22.4906 70.4696C23.6006 70.9096 24.3806 71.9196 24.6306 72.8796C24.8006 73.5296 24.6206 73.6996 24.5606 76.0896C24.5406 77.0896 24.5206 77.5896 24.5806 77.8996C24.8106 79.1096 25.3606 79.4296 25.7506 80.6796C25.9106 81.1996 26.0006 81.7196 26.0306 82.7496C26.5106 97.6996 25.6306 102.47 25.6306 102.47C22.5706 127.1 22.5806 128.75 20.2806 142.54C19.8706 145.01 19.3606 147.01 18.8706 148.55C18.5906 149.44 17.5106 149.79 16.7606 149.23C15.1906 148.06 15.0406 147.52 14.6306 147C14.5706 146.93 13.9906 146.12 13.8506 145.68C13.7406 145.35 13.6906 145 13.5906 144.66C13.4206 144.12 13.3806 143.54 13.3206 143.24C12.8006 140.68 11.5906 131.56 9.7606 122.78C8.0306 114.43 4.9506 107.63 5.0006 100.69C5.0806 90.0096 7.8106 87.8896 8.8706 86.3996C10.6906 83.8396 14.5206 81.6496 16.3406 78.6396C16.4806 78.3996 16.6706 78.1096 16.8306 77.6596C17.3706 76.2196 16.9206 75.4196 17.2006 73.9596C17.2906 73.4596 17.4606 72.5696 18.1006 71.7896C19.0006 70.6896 20.8206 69.8196 22.4706 70.4696L22.4906 70.4696Z" fill="#1D1D1B" stroke="white" stroke-width="0.5" stroke-miterlimit="10"/>
<path d="M23.1605 74.1102C23.1605 72.978 22.2427 72.0602 21.1105 72.0602C19.9784 72.0602 19.0605 72.978 19.0605 74.1102C19.0605 75.2423 19.9784 76.1602 21.1105 76.1602C22.2427 76.1602 23.1605 75.2423 23.1605 74.1102Z" fill="white" stroke="#1D1D1B" stroke-width="0.5" stroke-miterlimit="10"/>
<path d="M9.97037 79.8706C8.86037 79.4306 8.08037 78.4206 7.83037 77.4606C7.66037 76.8106 7.84037 76.6406 7.90037 74.2506C7.92037 73.2506 7.94037 72.7506 7.88037 72.4406C7.65037 71.2306 7.10037 70.9106 6.71037 69.6606C6.55037 69.1406 6.46037 68.6205 6.43037 67.5905C5.95037 52.6405 6.83037 47.8706 6.83037 47.8706C9.89037 23.2406 9.88037 21.5906 12.1804 7.80055C12.5904 5.33055 13.1004 3.33054 13.5904 1.79054C13.8704 0.900542 14.9504 0.55055 15.7004 1.11055C17.2704 2.28055 17.4204 2.82055 17.8304 3.34055C17.8904 3.41055 18.4704 4.22055 18.6104 4.66055C18.7204 4.99055 18.7704 5.34054 18.8704 5.68054C19.0404 6.22054 19.0804 6.80055 19.1404 7.10055C19.6604 9.66055 20.8704 18.7806 22.7004 27.5605C24.4304 35.9106 27.5104 42.7106 27.4604 49.6506C27.3804 60.3306 24.6504 62.4506 23.5904 63.9406C21.7704 66.5006 17.9404 68.6905 16.1204 71.7005C15.9804 71.9405 15.7904 72.2306 15.6304 72.6806C15.0904 74.1206 15.5404 74.9205 15.2604 76.3805C15.1704 76.8805 15.0004 77.7706 14.3604 78.5506C13.4604 79.6506 11.6404 80.5206 9.99037 79.8706L9.97037 79.8706Z" fill="#1D1D1B" stroke="white" stroke-width="0.5" stroke-miterlimit="10"/>
<path d="M13.4008 76.2293C13.4008 75.0971 12.483 74.1793 11.3508 74.1793C10.2186 74.1793 9.30078 75.0971 9.30078 76.2293C9.30078 77.3615 10.2186 78.2793 11.3508 78.2793C12.483 78.2793 13.4008 77.3615 13.4008 76.2293Z" fill="white" stroke="#1D1D1B" stroke-width="0.5" stroke-miterlimit="10"/>
</g>
<defs>
<radialGradient id="paint0_radial_225_80" cx="0" cy="0" r="1" gradientUnits="userSpaceOnUse" gradientTransform="translate(16 75.5) rotate(-90) scale(15 15)">
<stop stop-color="#FFCE01"/>
<stop offset="0.33" stop-color="#FECB03"/>
<stop offset="0.54" stop-color="#FCC30C"/>
<stop offset="0.72" stop-color="#FAB51A"/>
<stop offset="0.88" stop-color="#F6A22F"/>
<stop offset="1" stop-color="#F28D46"/>
</radialGradient>
<clipPath id="clip0_225_80">
<rect width="150" height="31" fill="white" transform="translate(0.5 150.5) rotate(-90)"/>
</clipPath>
</defs>
</svg>
