<svg width="76" height="357" viewBox="0 0 76 357" fill="none" xmlns="http://www.w3.org/2000/svg">
<path d="M74.9051 178.605C74.9051 158.391 58.5187 142.005 38.3051 142.005C18.0915 142.005 1.70508 158.391 1.70508 178.605C1.70508 198.819 18.0915 215.205 38.3051 215.205C58.5187 215.205 74.9051 198.819 74.9051 178.605Z" fill="#EFC640" stroke="black" stroke-width="1.5" stroke-miterlimit="10"/>
<path d="M54.7344 167.385C57.3944 168.425 59.2344 170.855 59.8444 173.135C60.2544 174.685 59.8244 175.095 59.6844 180.795C59.6244 183.175 59.5944 184.365 59.7444 185.125C60.3044 188.005 61.5944 188.765 62.5244 191.755C62.9044 192.985 63.1244 194.245 63.2044 196.685C64.3544 232.335 62.2544 243.725 62.2544 243.725C54.9544 302.465 54.9744 306.415 49.5044 339.305C48.5244 345.205 47.3144 349.955 46.1444 353.635C45.4744 355.755 42.9044 356.595 41.1144 355.265C37.3744 352.485 37.0144 351.185 36.0244 349.935C35.8844 349.755 34.5044 347.835 34.1544 346.775C33.8944 345.975 33.7844 345.155 33.5344 344.355C33.1344 343.055 33.0344 341.675 32.8844 340.965C31.6444 334.865 28.7544 313.105 24.4044 292.165C20.2644 272.245 12.9244 256.035 13.0544 239.465C13.2544 214.005 19.7544 208.925 22.2844 205.375C26.6344 199.275 35.7644 194.045 40.1144 186.865C40.4544 186.305 40.8944 185.585 41.2844 184.525C42.5744 181.085 41.5044 179.175 42.1544 175.715C42.3744 174.525 42.7744 172.405 44.2944 170.545C46.4444 167.915 50.7844 165.845 54.7244 167.395L54.7344 167.385Z" fill="black" stroke="white" stroke-width="1.5" stroke-miterlimit="10"/>
<path d="M24.865 189.815C22.205 188.775 20.365 186.345 19.755 184.065C19.345 182.515 19.775 182.105 19.915 176.405C19.975 174.025 20.005 172.835 19.855 172.075C19.295 169.195 18.005 168.435 17.075 165.445C16.695 164.215 16.475 162.955 16.395 160.515C15.245 124.865 17.345 113.475 17.345 113.475C24.645 54.7351 24.625 50.7851 30.095 17.8951C31.075 11.9951 32.285 7.24511 33.455 3.56511C34.125 1.44511 36.695 0.605103 38.485 1.9351C42.225 4.7151 42.585 6.01509 43.575 7.26509C43.715 7.44509 45.095 9.36509 45.445 10.4251C45.705 11.2251 45.815 12.0451 46.065 12.8451C46.465 14.1451 46.565 15.5251 46.715 16.2351C47.955 22.3351 50.845 44.0951 55.195 65.0351C59.335 84.9551 66.675 101.165 66.545 117.735C66.345 143.195 59.845 148.275 57.315 151.825C52.965 157.925 43.835 163.155 39.485 170.335C39.145 170.895 38.705 171.615 38.315 172.675C37.025 176.115 38.095 178.025 37.445 181.485C37.225 182.675 36.825 184.795 35.305 186.655C33.155 189.285 28.815 191.355 24.875 189.805L24.865 189.815Z" fill="black" stroke="white" stroke-width="1.5" stroke-miterlimit="10"/>
</svg>
